<svg width="50" height="50" viewBox="0 0 50 50" fill="none" xmlns="http://www.w3.org/2000/svg">
<circle cx="25" cy="25" r="25" transform="matrix(1 0 0 -1 0 50)" fill="#00B1B8"/>
<mask id="mask0_6933_4422" style="mask-type:alpha" maskUnits="userSpaceOnUse" x="0" y="0" width="50" height="50">
<circle cx="25" cy="25" r="25" transform="matrix(1 0 0 -1 0 50)" fill="#00C9A5"/>
</mask>
<g mask="url(#mask0_6933_4422)">
<path d="M24.9864 25.0201C25.2566 28.7541 29.0873 32.4002 34.3881 33.6555C38.0995 34.5351 41.6679 34.0313 44.1316 32.5521C43.9329 34.4791 43.1381 36.1742 41.7235 37.3256C38.1631 40.2361 32.0834 38.6369 28.1415 33.7515C25.9242 31.0089 24.8513 27.8026 24.9785 25.0121C23.6115 28.4902 25.4792 33.4556 29.731 36.9018C32.6954 39.3086 36.1286 40.42 38.9817 40.1641C37.9724 41.8113 36.526 42.9867 34.7537 43.4184C30.2953 44.4819 25.503 40.388 24.0566 34.2712C23.246 30.825 23.6592 27.4748 24.9785 25.0121C22.2446 27.5467 21.7916 32.84 24.1361 37.7974C25.7653 41.2596 28.3879 43.7543 31.0741 44.7777C29.4449 45.8172 27.6408 46.249 25.8606 45.8572C21.3783 44.8737 18.8352 39.0927 20.1624 32.9519C20.9095 29.4897 22.7294 26.6512 24.9785 25.0121C21.4181 26.1075 18.7319 30.6731 18.708 36.1662C18.6921 39.9962 19.9717 43.3944 21.9585 45.4734C20.0432 45.7052 18.2233 45.3055 16.7927 44.178C13.1846 41.3315 13.3754 35.0148 17.2219 30.0574C19.3915 27.2749 22.2526 25.5078 24.9864 25.0041C21.3068 24.4364 16.9119 27.3868 14.5277 32.3202C12.8509 35.7664 12.5489 39.3805 13.431 42.1231C11.6111 41.4994 10.1408 40.34 9.33019 38.6929C7.29567 34.5591 10.2044 28.946 15.7993 26.1635C18.9544 24.5963 22.2923 24.2525 24.9785 24.9961C21.9029 22.8852 16.6815 23.6208 12.3979 27.019C9.40966 29.3938 7.57383 32.5201 7.19235 35.3826C5.81746 34.0233 4.99889 32.3362 4.97505 30.5052C4.92736 25.8916 9.95803 22.1016 16.2126 22.0376C19.7332 22.0056 22.8883 23.149 24.9785 24.9881C23.1268 21.7418 18.104 20.1266 12.7793 21.326C9.05998 22.1655 6.06383 24.1725 4.48231 26.5872C3.83063 24.7642 3.81474 22.8932 4.58563 21.23C6.52478 17.0562 12.6999 15.8329 18.3584 18.5035C21.5452 20.0067 23.8977 22.4214 24.9864 24.9881C24.7083 21.254 20.8856 17.6079 15.5688 16.3606C11.8733 15.497 8.30498 16.0008 5.84925 17.464C6.03999 15.513 6.84267 13.8019 8.27319 12.6345C11.8336 9.74004 17.9133 11.3472 21.8472 16.2326C24.0566 18.9912 25.1215 22.1895 24.9944 24.9801C26.3693 21.5019 24.5096 16.5365 20.2657 13.0823C17.3014 10.6676 13.8761 9.56413 11.015 9.812C12.0323 8.16486 13.4866 6.98947 15.2589 6.56569C19.7174 5.50225 24.5016 9.6121 25.9401 15.7289C26.7507 19.1751 26.3295 22.5254 25.0023 24.9881C27.7442 22.4534 28.2051 17.1682 25.8765 12.2027C24.2473 8.73256 21.6327 6.23787 18.9465 5.2144C20.5598 4.18294 22.3718 3.75117 24.152 4.14296C28.6263 5.13444 31.1695 10.9154 29.8264 17.0642C29.0714 20.5184 27.2514 23.3569 24.9944 24.9961C28.5548 23.9086 31.2489 19.343 31.2887 13.8579C31.3205 10.0279 30.0409 6.62966 28.0621 4.53476C29.9774 4.31087 31.7894 4.71866 33.2278 5.84607C36.8359 8.69258 36.6372 15.0093 32.7748 19.9587C30.6052 22.7412 27.7442 24.5003 25.0103 24.9961C28.6819 25.5638 33.0848 22.6293 35.4769 17.7039C37.1538 14.2657 37.4638 10.6516 36.5816 7.901C38.4095 8.53267 39.8718 9.69206 40.6745 11.3312C42.701 15.473 39.7923 21.0781 34.1815 23.8527C31.0264 25.4198 27.6885 25.7477 25.0103 25.0041C28.078 27.123 33.2993 26.3953 37.5909 23.0051C40.5871 20.6303 42.4229 17.512 42.8203 14.6495C44.1872 16.0168 45.0058 17.6959 45.0296 19.5349C45.0614 24.1485 40.0307 27.9225 33.7841 27.9865C30.2635 28.0185 27.1084 26.8591 25.0182 25.0201C26.87 28.2744 31.8927 29.8895 37.2174 28.7061C40.9367 27.8746 43.9329 25.8596 45.5224 23.4609C46.174 25.2839 46.182 27.1549 45.4031 28.8101C43.456 32.9839 37.2889 34.1993 31.6225 31.5207C28.4356 30.0094 26.0991 27.5947 25.0023 25.028L24.9864 25.0201Z" fill="url(#paint0_radial_6933_4422)"/>
</g>
<defs>
<radialGradient id="paint0_radial_6933_4422" cx="0" cy="0" r="1" gradientUnits="userSpaceOnUse" gradientTransform="translate(24.9864 25.0041) scale(20.9333 21.061)">
<stop stop-color="white"/>
<stop offset="1" stop-color="white" stop-opacity="0"/>
</radialGradient>
</defs>
</svg>
