<svg xmlns="http://www.w3.org/2000/svg">
    <symbol id="1" viewBox="0 0 78 78">
        <path fill="none" d="M52 36.8571L39.7032 24.6955C39.3136 24.3101 38.6864 24.3101 38.2968 24.6955L26 36.8571M29.6833 36.4286V47C29.6833 47.5523 30.131 48 30.6833 48H35.6167C36.169 48 36.6167 47.5523 36.6167 47V43.6429C36.6167 43.0906 37.0644 42.6429 37.6167 42.6429H39.95C40.5023 42.6429 40.95 43.0906 40.95 43.6429V47C40.95 47.5523 41.3977 48 41.95 48H47.3167C47.869 48 48.3167 47.5523 48.3167 47V36.4286" stroke-width="2" stroke-linecap="round"/>
    </symbol>
    <symbol id="2" viewBox="0 0 78 78">
        <path fill="none" d="M47 30.6667L30.6667 47.6667M49 45.3333C49 47.3584 47.3584 49 45.3333 49C43.3083 49 41.6667 47.3584 41.6667 45.3333C41.6667 43.3083 43.3083 41.6667 45.3333 41.6667C47.3584 41.6667 49 43.3083 49 45.3333ZM36.3333 32.6667C36.3333 34.6917 34.6917 36.3333 32.6667 36.3333C30.6416 36.3333 29 34.6917 29 32.6667C29 30.6416 30.6416 29 32.6667 29C34.6917 29 36.3333 30.6416 36.3333 32.6667Z" stroke-width="2" stroke-linecap="round"/>
    </symbol>
    <symbol id="3" viewBox="0 0 78 78">
        <circle stroke="none" cx="39.2598" cy="29.8492" r="1.25004"/>
        <circle stroke="none" cx="32.8008" cy="32.5572" r="1.25004"/>
        <circle stroke="none" cx="1.25004" cy="1.25004" r="1.25004" transform="matrix(-1 0 0 1 46.4375 31.3071)"/>
        <circle stroke="none" cx="30.0918" cy="38.8775" r="1.25004"/>
        <circle stroke="none" cx="1.25004" cy="1.25004" r="1.25004" transform="matrix(-1 0 0 1 49.1465 37.6274)"/>
        <circle stroke="none" cx="32.8008" cy="44.8965" r="1.25004"/>
        <circle stroke="none" cx="1.25004" cy="1.25004" r="1.25004" transform="matrix(-1 0 0 1 46.4375 43.6465)"/>
        <path stroke="none" d="M38.8005 38.5477L49.809 32.9839C49.9899 32.8924 50.2084 32.9212 50.3595 33.0562C50.6028 33.2736 50.5715 33.6632 50.2965 33.8389L39.9021 40.4795C39.3674 40.8211 38.6558 40.6474 38.3385 40.098C38.0189 39.5444 38.23 38.836 38.8005 38.5477Z"/>
        <path fill="none" d="M28.5399 50C26.3721 47.7881 24.8959 44.9699 24.2978 41.9018C23.6998 38.8338 24.0067 35.6537 25.1799 32.7636C26.353 29.8736 28.3397 27.4034 30.8887 25.6655C33.4377 23.9276 36.4344 23 39.5001 23C42.5657 23 45.5623 23.9276 48.1113 25.6655C50.6603 27.4034 52.647 29.8736 53.8201 32.7636C54.9933 35.6537 55.3002 38.8338 54.7022 41.9018C54.1528 44.7198 52.8626 47.3271 50.9762 49.4473C50.6547 49.8087 50.1876 50 49.7039 50H32.4238" stroke-width="2" stroke-linecap="round"/>
    </symbol>
    <symbol id="4" viewBox="0 0 78 78">
        <path fill="none" d="M29 40.9778L33.3299 46.828C34.1294 47.9082 35.7456 47.9082 36.5451 46.828L49 30" stroke-width="2" stroke-linecap="round"/>
    </symbol>
    <symbol id="5" viewBox="0 0 80 81">
        <path d="M23 28V47.614C23 48.1663 23.4477 48.614 24 48.614H56C56.5523 48.614 57 48.1663 57 47.614V29C57 28.4477 56.5523 28 56 28H26.443M30.7468 53H48.3924" fill="none" stroke-width="2" stroke-linecap="round"/>
    </symbol>
    <symbol id="6" viewBox="0 0 80 81">
        <path d="M53.8698 40.0653C53.8698 59.2691 25.1302 59.5575 25.1302 40.0653M24 35.9683V29.0767C24 28.8476 24.1155 28.6357 24.311 28.5211C32.3138 23.8289 46.6786 23.8243 54.689 28.521C54.8845 28.6357 55 28.8476 55 29.0767V35.9683C55 36.5518 54.2761 36.8739 53.8071 36.536C47.2493 31.8112 31.7652 31.7942 25.1925 36.5356C24.7237 36.8738 24 36.5518 24 35.9683ZM39.5594 47.668C37.7295 47.668 34.7173 47.0239 34.7173 44.0767C34.7173 40.8019 33.7451 37.5002 39.5594 37.5002C45.3737 37.5002 44.5646 40.8019 44.5646 44.0767C44.5646 47.0239 41.3892 47.668 39.5594 47.668Z" fill="none" stroke-width="2" stroke-linecap="round" stroke-linejoin="round"/>
    </symbol>

    <symbol id="7" viewBox="0 0 80 81">
        <circle cx="40" cy="30" r="5" stroke-width="2" fill="none"/>
        <path d="M30.9708 43.2C32.3708 43.2 33.4394 43.4567 34.1768 43.97C34.9234 44.4833 35.2968 45.2673 35.2968 46.322C35.2968 47.638 34.6481 48.5293 33.3508 48.996C33.5281 49.2107 33.7288 49.472 33.9528 49.78C34.1768 50.088 34.4054 50.424 34.6388 50.788C34.8721 51.1427 35.0961 51.5113 35.3108 51.894C35.5254 52.2673 35.7168 52.636 35.8848 53H33.9108C33.7334 52.664 33.5421 52.328 33.3368 51.992C33.1314 51.6467 32.9214 51.3153 32.7068 50.998C32.5014 50.6713 32.2961 50.368 32.0908 50.088C31.8854 49.7987 31.6941 49.542 31.5168 49.318C31.3861 49.3273 31.2741 49.332 31.1808 49.332C31.0874 49.332 30.9988 49.332 30.9148 49.332H30.0608V53H28.2968V43.438C28.7261 43.3447 29.1834 43.284 29.6688 43.256C30.1541 43.2187 30.5881 43.2 30.9708 43.2ZM31.0968 44.726C30.7234 44.726 30.3781 44.74 30.0608 44.768V47.904H30.8308C31.2601 47.904 31.6381 47.8807 31.9648 47.834C32.2914 47.7873 32.5621 47.7033 32.7768 47.582C33.0008 47.4607 33.1688 47.2973 33.2808 47.092C33.3928 46.8867 33.4488 46.6253 33.4488 46.308C33.4488 46.0093 33.3928 45.7573 33.2808 45.552C33.1688 45.3467 33.0054 45.1833 32.7908 45.062C32.5854 44.9407 32.3381 44.8567 32.0488 44.81C31.7594 44.754 31.4421 44.726 31.0968 44.726ZM37.2518 53V43.298H43.4818V44.796H39.0158V47.19H42.9918V48.66H39.0158V51.502H43.8178V53H37.2518ZM49.4115 53.21C48.6835 53.21 48.0302 53.098 47.4515 52.874C46.8728 52.65 46.3828 52.3233 45.9815 51.894C45.5802 51.4553 45.2722 50.9233 45.0575 50.298C44.8428 49.6727 44.7355 48.954 44.7355 48.142C44.7355 47.33 44.8568 46.6113 45.0995 45.986C45.3515 45.3607 45.6922 44.8333 46.1215 44.404C46.5508 43.9653 47.0548 43.634 47.6335 43.41C48.2122 43.186 48.8328 43.074 49.4955 43.074C49.8968 43.074 50.2608 43.1067 50.5875 43.172C50.9142 43.228 51.1988 43.2933 51.4415 43.368C51.6842 43.4427 51.8848 43.522 52.0435 43.606C52.2022 43.69 52.3142 43.7507 52.3795 43.788L51.8615 45.23C51.6375 45.09 51.3155 44.9593 50.8955 44.838C50.4848 44.7073 50.0368 44.642 49.5515 44.642C49.1315 44.642 48.7395 44.7167 48.3755 44.866C48.0115 45.006 47.6942 45.2207 47.4235 45.51C47.1622 45.7993 46.9568 46.1633 46.8075 46.602C46.6582 47.0407 46.5835 47.5493 46.5835 48.128C46.5835 48.6413 46.6395 49.1127 46.7515 49.542C46.8728 49.9713 47.0548 50.3447 47.2975 50.662C47.5402 50.97 47.8482 51.2127 48.2215 51.39C48.5948 51.558 49.0428 51.642 49.5655 51.642C50.1908 51.642 50.6995 51.5813 51.0915 51.46C51.4835 51.3293 51.7868 51.208 52.0015 51.096L52.4775 52.538C52.3655 52.6127 52.2115 52.6873 52.0155 52.762C51.8288 52.8367 51.6048 52.9113 51.3435 52.986C51.0822 53.0513 50.7882 53.1027 50.4615 53.14C50.1348 53.1867 49.7848 53.21 49.4115 53.21Z" stroke="none"/>
    </symbol>
    <symbol id="8" viewBox="0 0 80 81">
        <path d="M48 24C49.6569 24 51 25.3431 51 27L51 53C51 54.6569 49.6569 56 48 56L33 56C31.3431 56 30 54.6569 30 53L30 27C30 25.3431 31.3431 24 33 24L48 24Z" stroke-width="2" stroke-linecap="round" fill="none"/>
    </symbol>
    <symbol id="9" viewBox="0 0 80 81">
        <path d="M53.8698 39.0653C53.8698 58.2691 25.1302 58.5575 25.1302 39.0653M24 34.9683V28.0767C24 27.8476 24.1155 27.6357 24.311 27.5211C32.3138 22.8289 46.6786 22.8243 54.689 27.521C54.8845 27.6357 55 27.8476 55 28.0767V34.9683C55 35.5518 54.2761 35.8739 53.8071 35.536C47.2493 30.8112 31.7652 30.7942 25.1925 35.5356C24.7237 35.8738 24 35.5518 24 34.9683ZM39.5594 46.668C37.7295 46.668 34.7173 46.0239 34.7173 43.0767C34.7173 39.8019 33.7451 36.5002 39.5594 36.5002C45.3737 36.5002 44.5646 39.8019 44.5646 43.0767C44.5646 46.0239 41.3892 46.668 39.5594 46.668Z" stroke-width="2" stroke-linecap="round" stroke-linejoin="round" fill="none"/>
    </symbol>
    <symbol id="10" viewBox="0 0 80 81">
        <path d="M34.8426 28.7424L35.4981 28.4718L35.4595 27.7637L35.2807 24.479L38.2163 23.983L39.0882 27.054L39.2895 27.7628L40.0261 27.7806C41.636 27.8194 43.1918 28.1648 44.6262 28.7689L45.283 29.0456L45.7588 28.5149L47.8448 26.1887L50.2713 27.9139L48.7872 30.5749L48.4291 31.2168L48.935 31.7502C50.0333 32.9081 50.9212 34.2801 51.5258 35.814L51.7903 36.485L52.5105 36.4458L55.5201 36.2819L56.0161 39.2175L53.1338 40.0359L52.4339 40.2346L52.4076 40.9617C52.3478 42.6155 51.9648 44.2099 51.3106 45.6711L51.0124 46.3371L51.5557 46.8243L53.8103 48.846L52.0852 51.2726L49.3992 49.7745L48.7717 49.4245L48.2398 49.9075C47.0779 50.9626 45.7124 51.8103 44.1924 52.3819L43.5059 52.64L43.5458 53.3723L43.7173 56.5213L40.7816 57.0173L39.8984 53.9064L39.7036 53.2203L38.9915 53.181C37.4236 53.0945 35.9127 52.7176 34.5222 52.0952L33.8562 51.7971L33.3691 52.3403L31.153 54.8116L28.7265 53.0865L30.3733 50.1338L30.7215 49.5096L30.2436 48.9781C29.2511 47.8743 28.4448 46.5891 27.8829 45.164L27.6184 44.493L26.8983 44.5322L23.4778 44.7185L22.9818 41.7828L26.2783 40.8469L26.9732 40.6496L27.0043 39.928C27.0699 38.4033 27.4103 36.9304 27.9843 35.5672L28.2609 34.9104L27.7303 34.4346L25.1874 32.1543L26.9126 29.7278L29.8389 31.3599L30.4776 31.7161L31.0107 31.2154C32.1117 30.1812 33.4037 29.3363 34.8426 28.7424ZM40.5085 46.339C43.7229 45.7959 45.8885 42.7498 45.3454 39.5354C44.8023 36.321 41.7562 34.1554 38.5418 34.6985C35.3274 35.2416 33.1618 38.2877 33.7049 41.5021C34.248 44.7166 37.2941 46.8821 40.5085 46.339Z" stroke-width="2" fill="none"/>
    </symbol>

</svg>
