<svg xmlns="http://www.w3.org/2000/svg">
    <symbol id="1" viewBox="0 0 78 78">
        <path fill="none" d="M52 36.8571L39.7032 24.6955C39.3136 24.3101 38.6864 24.3101 38.2968 24.6955L26 36.8571M29.6833 36.4286V47C29.6833 47.5523 30.131 48 30.6833 48H35.6167C36.169 48 36.6167 47.5523 36.6167 47V43.6429C36.6167 43.0906 37.0644 42.6429 37.6167 42.6429H39.95C40.5023 42.6429 40.95 43.0906 40.95 43.6429V47C40.95 47.5523 41.3977 48 41.95 48H47.3167C47.869 48 48.3167 47.5523 48.3167 47V36.4286" stroke-width="2" stroke-linecap="round"/>
    </symbol>
    <symbol id="2" viewBox="0 0 78 78">
        <path fill="none" d="M47 30.6667L30.6667 47.6667M49 45.3333C49 47.3584 47.3584 49 45.3333 49C43.3083 49 41.6667 47.3584 41.6667 45.3333C41.6667 43.3083 43.3083 41.6667 45.3333 41.6667C47.3584 41.6667 49 43.3083 49 45.3333ZM36.3333 32.6667C36.3333 34.6917 34.6917 36.3333 32.6667 36.3333C30.6416 36.3333 29 34.6917 29 32.6667C29 30.6416 30.6416 29 32.6667 29C34.6917 29 36.3333 30.6416 36.3333 32.6667Z" stroke-width="2" stroke-linecap="round"/>
    </symbol>
    <symbol id="3" viewBox="0 0 78 78">
        <circle stroke="none" cx="39.2598" cy="29.8492" r="1.25004"/>
        <circle stroke="none" cx="32.8008" cy="32.5572" r="1.25004"/>
        <circle stroke="none" cx="1.25004" cy="1.25004" r="1.25004" transform="matrix(-1 0 0 1 46.4375 31.3071)"/>
        <circle stroke="none" cx="30.0918" cy="38.8775" r="1.25004"/>
        <circle stroke="none" cx="1.25004" cy="1.25004" r="1.25004" transform="matrix(-1 0 0 1 49.1465 37.6274)"/>
        <circle stroke="none" cx="32.8008" cy="44.8965" r="1.25004"/>
        <circle stroke="none" cx="1.25004" cy="1.25004" r="1.25004" transform="matrix(-1 0 0 1 46.4375 43.6465)"/>
        <path stroke="none" d="M38.8005 38.5477L49.809 32.9839C49.9899 32.8924 50.2084 32.9212 50.3595 33.0562C50.6028 33.2736 50.5715 33.6632 50.2965 33.8389L39.9021 40.4795C39.3674 40.8211 38.6558 40.6474 38.3385 40.098C38.0189 39.5444 38.23 38.836 38.8005 38.5477Z"/>
        <path fill="none" d="M28.5399 50C26.3721 47.7881 24.8959 44.9699 24.2978 41.9018C23.6998 38.8338 24.0067 35.6537 25.1799 32.7636C26.353 29.8736 28.3397 27.4034 30.8887 25.6655C33.4377 23.9276 36.4344 23 39.5001 23C42.5657 23 45.5623 23.9276 48.1113 25.6655C50.6603 27.4034 52.647 29.8736 53.8201 32.7636C54.9933 35.6537 55.3002 38.8338 54.7022 41.9018C54.1528 44.7198 52.8626 47.3271 50.9762 49.4473C50.6547 49.8087 50.1876 50 49.7039 50H32.4238" stroke-width="2" stroke-linecap="round"/>
    </symbol>
    <symbol id="4" viewBox="0 0 78 78">
        <path fill="none" d="M29 40.9778L33.3299 46.828C34.1294 47.9082 35.7456 47.9082 36.5451 46.828L49 30" stroke-width="2" stroke-linecap="round"/>
    </symbol>
    <symbol id="5" viewBox="0 0 80 81">
        <path d="M23 28V47.614C23 48.1663 23.4477 48.614 24 48.614H56C56.5523 48.614 57 48.1663 57 47.614V29C57 28.4477 56.5523 28 56 28H26.443M30.7468 53H48.3924" fill="none" stroke-width="2" stroke-linecap="round"/>
    </symbol>
    <symbol id="6" viewBox="0 0 80 81">
        <path d="M53.8698 40.0653C53.8698 59.2691 25.1302 59.5575 25.1302 40.0653M24 35.9683V29.0767C24 28.8476 24.1155 28.6357 24.311 28.5211C32.3138 23.8289 46.6786 23.8243 54.689 28.521C54.8845 28.6357 55 28.8476 55 29.0767V35.9683C55 36.5518 54.2761 36.8739 53.8071 36.536C47.2493 31.8112 31.7652 31.7942 25.1925 36.5356C24.7237 36.8738 24 36.5518 24 35.9683ZM39.5594 47.668C37.7295 47.668 34.7173 47.0239 34.7173 44.0767C34.7173 40.8019 33.7451 37.5002 39.5594 37.5002C45.3737 37.5002 44.5646 40.8019 44.5646 44.0767C44.5646 47.0239 41.3892 47.668 39.5594 47.668Z" fill="none" stroke-width="2" stroke-linecap="round" stroke-linejoin="round"/>
    </symbol>
</svg>
