<svg xmlns="http://www.w3.org/2000/svg">
    <symbol id="nav" viewBox="0 0 8 5">
        <path d="M1.16797 1L4.16782 4.00023L7.16759 1" fill="none" stroke-linecap="round"/>
    </symbol>
    <symbol id="vk" viewBox="0 0 33 33">
        <path stroke="none" d="M16.9514 20.905C11.422 20.905 8.26813 17.2232 8.13672 11.0967H10.9065C10.9974 15.5934 13.0394 17.4981 14.6567 17.8908V11.0967H17.2647V14.9749C18.8619 14.8079 20.5399 13.0407 21.106 11.0967H23.714C23.5007 12.1049 23.0754 13.0595 22.4649 13.9008C21.8544 14.7421 21.0718 15.452 20.1659 15.9861C21.1771 16.4741 22.0702 17.1649 22.7863 18.0128C23.5025 18.8607 24.0254 19.8464 24.3205 20.905H21.4497C21.1847 19.9856 20.6463 19.1625 19.9019 18.539C19.1574 17.9155 18.24 17.5192 17.2647 17.3999V20.905H16.9514Z"/>
    </symbol>
    <symbol id="od" viewBox="0 0 34 33">
        <path fill="none" d="M13.4189 17.6016C15.5091 19.0877 18.7607 19.089 20.8528 17.6016" stroke-width="2" stroke-linecap="round" stroke-linejoin="round"/>
        <path fill="none" d="M13.5107 23.5494L17.0713 19.5537L20.8517 23.5494" stroke-width="2" stroke-linecap="round" stroke-linejoin="round"/>
        <path fill="none" d="M20.021 11.7483C20.021 13.3392 18.7313 14.6289 17.1404 14.6289C15.5495 14.6289 14.2598 13.3392 14.2598 11.7483C14.2598 10.1574 15.5495 8.86768 17.1404 8.86768C18.7313 8.86768 20.021 10.1574 20.021 11.7483Z" stroke-width="2"/>
    </symbol>
    <symbol id="wa" viewBox="0 0 34 33">
        <path stroke="none" d="M22.9724 10.4172C21.4153 8.94935 19.3452 8.1377 17.1422 8.1377C12.599 8.1377 8.89847 11.6261 8.89847 15.9089C8.89847 17.2775 9.2786 18.6159 9.99764 19.7945L8.8252 23.8226L13.1944 22.7432C14.3989 23.3606 15.7545 23.6887 17.1331 23.6887H17.1377C21.6809 23.6887 25.3814 20.2003 25.3814 15.9175C25.386 13.8409 24.5296 11.8851 22.9724 10.4172Z"/>
        <path stroke="none" d="M20.6202 18.0843C20.4272 17.978 19.4792 17.4787 19.3034 17.4093C19.1275 17.34 18.9988 17.303 18.8702 17.5157C18.7415 17.7237 18.3726 18.1907 18.2611 18.3294C18.1496 18.4681 18.038 18.4866 17.845 18.3802C17.652 18.2739 17.0301 18.0566 16.2923 17.3492C15.7176 16.799 15.3315 16.1148 15.22 15.9067C15.1085 15.6987 15.2071 15.5877 15.3058 15.4814C15.3916 15.3889 15.4988 15.2363 15.5932 15.1161C15.6875 14.9959 15.7219 14.9081 15.7862 14.7694C15.8505 14.6306 15.8162 14.5104 15.769 14.4041C15.7219 14.2978 15.3358 13.276 15.1728 12.8599C15.0141 12.453 14.8554 12.5085 14.7396 12.5039C14.6281 12.4993 14.4994 12.4946 14.3707 12.4946C14.2421 12.4946 14.0319 12.5455 13.856 12.7535C13.6802 12.9616 13.1826 13.4655 13.1826 14.4873C13.1826 15.5091 13.8732 16.4985 13.9718 16.6372C14.0662 16.7759 15.3315 18.8749 17.2703 19.7765C17.7292 19.9892 18.0895 20.1186 18.3683 20.2157C18.8316 20.3729 19.2519 20.3498 19.5822 20.299C19.951 20.2389 20.7231 19.795 20.8861 19.3095C21.0448 18.8241 21.0448 18.408 20.9976 18.3201C20.9419 18.2415 20.8132 18.1907 20.6202 18.0843Z" fill="#F4F4F4"/>
    </symbol>
    <symbol id="tg" viewBox="0 0 34 33">
        <path stroke="none" fill-rule="evenodd" clip-rule="evenodd" d="M21.3551 11.2104L9.90768 15.3712C9.90768 15.3712 9.36842 15.545 9.40945 15.86C9.45048 16.1751 9.89595 16.3217 9.89595 16.3217L12.7739 17.218L19.6904 13.1496C19.6904 13.1496 20.089 12.9268 20.0773 13.1496C20.0773 13.1496 20.1476 13.1876 19.9366 13.3723C19.7256 13.5569 14.503 17.9024 14.503 17.9024L14.1279 20.8736C14.2862 20.9388 14.4327 20.8356 14.4327 20.8356L16.2966 19.2658L19.198 21.3244C19.9835 21.6395 20.2648 20.9822 20.2648 20.9822L22.2987 11.4603C22.2987 10.8302 21.3551 11.2104 21.3551 11.2104Z"/>
    </symbol>
    <symbol id="phone" viewBox="0 0 34 33">
        <path stroke="none" d="M14.0347 11.5728C14.4028 12.8443 13.5307 13.8243 13.0487 14.1555C13.1583 14.7294 13.6534 16.1951 14.7577 17.4666C15.862 18.7381 17.5843 19.4974 18.3074 19.7181C18.3293 19.6078 18.5046 19.2811 19.0304 18.8573C19.5563 18.4334 20.3013 18.4158 20.6081 18.4599C21.0244 18.5041 22.1331 18.7513 23.2374 19.387C24.6178 20.1817 24.0919 21.4399 23.4346 22.2346C22.7773 23.0293 21.9227 23.4928 19.7535 23.2279C17.5843 22.9631 15.3493 21.771 13.0487 19.7181C10.748 17.6652 9.89348 15.215 9.43334 13.5594C9.06523 12.235 9.19231 10.8443 9.30187 10.3145C9.60863 9.91721 10.4062 9.00334 11.1424 8.52654C11.8786 8.04974 12.9391 8.9018 13.3774 9.38743C13.4431 9.5861 13.6666 10.3013 14.0347 11.5728Z"/>
    </symbol>

    <symbol id="user" viewBox="0 0 44 43">
        <path stroke="none" d="M26.3636 17.6476C26.3636 19.6621 24.7345 21.2952 22.725 21.2952C20.7155 21.2952 19.0864 19.6621 19.0864 17.6476C19.0864 15.6331 20.7155 14 22.725 14C24.7345 14 26.3636 15.6331 26.3636 17.6476Z"/>
        <path stroke="none" d="M17.7784 28.9636C16.6738 28.9636 15.7495 28.0499 16.0613 26.9902C16.9101 24.1054 19.5722 22 22.7248 22C25.8774 22 28.5395 24.1054 29.3883 26.9902C29.7001 28.0499 28.7757 28.9636 27.6712 28.9636H17.7784Z"/>
    </symbol>
    <symbol id="burger" viewBox="0 0 44 43">
        <path fill="none" d="M16 15H31M16 21.3529H31M16 27H31" stroke-width="1.13068" stroke-linecap="round"/>
    </symbol>
    <symbol id="speed" viewBox="0 0 28 25">
        <circle stroke="none" cx="14.0156" cy="5.52974" r="0.988235"/>
        <circle stroke="none" cx="8.37007" cy="8.07076" r="0.988235"/>
        <circle stroke="none" cx="0.988235" cy="0.988235" r="0.988235" transform="matrix(-1 0 0 1 20.9375 7.08252)"/>
        <circle stroke="none" cx="5.82906" cy="14.0004" r="0.988235"/>
        <circle stroke="none" cx="0.988235" cy="0.988235" r="0.988235" transform="matrix(-1 0 0 1 23.4766 13.0122)"/>
        <circle stroke="none" cx="8.37007" cy="19.6464" r="0.988235"/>
        <circle stroke="none" cx="0.988235" cy="0.988235" r="0.988235" transform="matrix(-1 0 0 1 20.9375 18.6582)"/>
        <path stroke="none" d="M14.6475 12.7592L21.0667 9.6142C21.2062 9.54588 21.3736 9.57366 21.4835 9.68335C21.647 9.84652 21.6189 10.1188 21.4255 10.2451L15.4405 14.1537C15.0543 14.4059 14.5357 14.282 14.3051 13.8827C14.0725 13.4797 14.2296 12.964 14.6475 12.7592Z"/>
        <path fill="none" d="M4.87373 24C3.02417 22.1158 1.76461 19.7151 1.25432 17.1016C0.744024 14.488 1.00592 11.779 2.0069 9.31716C3.00787 6.85528 4.70296 4.75107 6.87781 3.27062C9.05266 1.79018 11.6096 1 14.2253 1C16.8409 1 19.3977 1.79018 21.5726 3.27062C23.7474 4.75107 25.4425 6.85528 26.4435 9.31716C27.4445 11.779 27.7064 14.488 27.1961 17.1016C26.6858 19.7151 25.4262 22.1158 23.5767 24H8.1876" stroke-linecap="round"/>
    </symbol>
    <symbol id="tag" viewBox="0 0 25 39">
        <path d="M0 39V0H12.5V29.4667L0 39Z"/>
        <path d="M25 39V0H12.5V29.4667L25 39Z"/>
    </symbol>
    <symbol id="stars" viewBox="0 0 149 23">
        <path d="M10.3317 1.89137C10.694 1.13225 11.7745 1.13224 12.1368 1.89137L14.2362 6.29109C14.382 6.5966 14.6724 6.80762 15.008 6.85186L19.8412 7.48896C20.6751 7.59888 21.009 8.62656 20.399 9.20564L16.8633 12.5619C16.6178 12.795 16.5069 13.1364 16.5685 13.4693L17.4561 18.2627C17.6093 19.0898 16.7351 19.7249 15.9958 19.3237L11.7113 16.9983C11.4137 16.8368 11.0547 16.8368 10.7572 16.9983L6.47264 19.3237C5.73339 19.7249 4.8592 19.0898 5.01234 18.2627L5.89995 13.4693C5.96158 13.1364 5.85065 12.795 5.60514 12.5619L2.06951 9.20564C1.45948 8.62656 1.79339 7.59888 2.6273 7.48896L7.46045 6.85186C7.79606 6.80762 8.0865 6.5966 8.23228 6.29109L10.3317 1.89137Z"/>
        <path d="M73.8766 1.89137C74.2389 1.13225 75.3194 1.13224 75.6817 1.89137L77.7811 6.29109C77.9269 6.5966 78.2173 6.80762 78.5529 6.85186L83.3861 7.48896C84.22 7.59888 84.5539 8.62656 83.9439 9.20564L80.4083 12.5619C80.1628 12.795 80.0518 13.1364 80.1134 13.4693L81.0011 18.2627C81.1542 19.0898 80.28 19.7249 79.5408 19.3237L75.2562 16.9983C74.9587 16.8368 74.5997 16.8368 74.3021 16.9983L70.0176 19.3237C69.2783 19.7249 68.4041 19.0898 68.5573 18.2627L69.4449 13.4693C69.5065 13.1364 69.3956 12.795 69.1501 12.5619L65.6144 9.20564C65.0044 8.62656 65.3383 7.59888 66.1722 7.48896L71.0054 6.85186C71.341 6.80762 71.6314 6.5966 71.7772 6.29109L73.8766 1.89137Z"/>
        <path d="M136.812 1.89137C137.174 1.13225 138.255 1.13224 138.617 1.89137L140.716 6.29109C140.862 6.5966 141.153 6.80762 141.488 6.85186L146.321 7.48896C147.155 7.59888 147.489 8.62656 146.879 9.20564L143.344 12.5619C143.098 12.795 142.987 13.1364 143.049 13.4693L143.936 18.2627C144.09 19.0898 143.215 19.7249 142.476 19.3237L138.191 16.9983C137.894 16.8368 137.535 16.8368 137.237 16.9983L132.953 19.3237C132.214 19.7249 131.339 19.0898 131.493 18.2627L132.38 13.4693C132.442 13.1364 132.331 12.795 132.085 12.5619L128.55 9.20564C127.94 8.62656 128.274 7.59888 129.108 7.48896L133.941 6.85186C134.276 6.80762 134.567 6.5966 134.713 6.29109L136.812 1.89137Z"/>
        <path d="M105.342 1.89137C105.704 1.13225 106.785 1.13224 107.147 1.89137L109.246 6.29109C109.392 6.5966 109.683 6.80762 110.018 6.85186L114.851 7.48896C115.685 7.59888 116.019 8.62656 115.409 9.20564L111.874 12.5619C111.628 12.795 111.517 13.1364 111.579 13.4693L112.466 18.2627C112.62 19.0898 111.745 19.7249 111.006 19.3237L106.722 16.9983C106.424 16.8368 106.065 16.8368 105.767 16.9983L101.483 19.3237C100.744 19.7249 99.8694 19.0898 100.023 18.2627L100.91 13.4693C100.972 13.1364 100.861 12.795 100.615 12.5619L97.0798 9.20564C96.4697 8.62656 96.8036 7.59888 97.6376 7.48896L102.471 6.85186C102.806 6.80762 103.097 6.5966 103.243 6.29109L105.342 1.89137Z"/>
        <path d="M42.1087 1.83231C42.4745 1.08573 43.5387 1.08573 43.9046 1.83231L46.0929 6.29765C46.2408 6.59937 46.5303 6.80667 46.8636 6.84944L51.8559 7.49021C52.6979 7.59828 53.0308 8.64021 52.4074 9.21643L48.7908 12.5592C48.5375 12.7933 48.4227 13.1415 48.4872 13.4804L49.4002 18.2811C49.5568 19.1045 48.6916 19.7437 47.9505 19.352L43.4739 16.9863C43.1815 16.8318 42.8317 16.8318 42.5394 16.9863L38.0627 19.352C37.3216 19.7437 36.4565 19.1045 36.6131 18.2811L37.5261 13.4804C37.5905 13.1415 37.4757 12.7933 37.2224 12.5592L33.6059 9.21643C32.9825 8.64021 33.3153 7.59828 34.1573 7.49021L39.1497 6.84944C39.4829 6.80667 39.7724 6.59937 39.9203 6.29765L42.1087 1.83231Z"/>
    </symbol>

    <symbol id="star" viewBox="0 0 16 15">
        <path d="M7.33757 0.87236C7.61317 0.294796 8.4353 0.294797 8.7109 0.872362L10.3082 4.21981C10.4191 4.45225 10.6401 4.6128 10.8955 4.64646L14.5727 5.13119C15.2071 5.21482 15.4612 5.99671 14.997 6.4373L12.307 8.99086C12.1202 9.16818 12.0358 9.42795 12.0827 9.68119L12.7581 13.3282C12.8746 13.9575 12.2095 14.4407 11.647 14.1354L8.38716 12.3662C8.16081 12.2433 7.88766 12.2433 7.66131 12.3662L4.40146 14.1354C3.83901 14.4407 3.1739 13.9575 3.29042 13.3282L3.96574 9.68119C4.01263 9.42795 3.92823 9.16818 3.74144 8.99086L1.05142 6.43729C0.587291 5.99671 0.841342 5.21482 1.4758 5.13119L5.15302 4.64646C5.40836 4.6128 5.62933 4.45225 5.74025 4.21981L7.33757 0.87236Z"/>
    </symbol>
    <symbol id="select" viewBox="0 0 17 8">
        <path d="M1 1L8.50009 7L16 1" fill="none" stroke-linecap="round"/>
    </symbol>
    <symbol id="pin" viewBox="0 0 34 33">
        <path fill-rule="evenodd" clip-rule="evenodd" d="M17.392 23.6843C16.9987 24.2988 16.1009 24.2988 15.7076 23.6843L11.428 16.9991C10.8548 16.1036 10.5498 15.0597 10.5498 13.993C10.5498 10.6171 13.2309 8 16.5498 8C19.8687 8 22.5498 10.6171 22.5498 13.993C22.5498 15.0597 22.2448 16.1036 21.6716 16.9991L17.392 23.6843ZM16.5498 14.9837C17.4535 14.9837 18.1862 14.2432 18.1862 13.3297C18.1862 12.4162 17.4535 11.6756 16.5498 11.6756C15.6461 11.6756 14.9134 12.4162 14.9134 13.3297C14.9134 14.2432 15.6461 14.9837 16.5498 14.9837Z" stroke="none"/>
    </symbol>
    <symbol id="close" viewBox="0 0 28 28">
        <path d="M1 1L27 27M1 27L27 1" fill="none" stroke-linecap="round"/>
    </symbol>

    <symbol id="business" viewBox="0 0 26 26">
        <rect stroke="none" x="8" y="9.4834" width="10" height="4" rx="0.47619"/>
        <path stroke="none" d="M8 14.4834H18V16.5072C18 16.7702 17.7868 16.9834 17.5238 16.9834H8.47619C8.2132 16.9834 8 16.7702 8 16.5072V14.4834Z"/>
        <path fill="none" d="M11 8.4834C10.9998 8.15007 11.261 7.4834 11.9195 7.4834L13 7.4834H14.0805C14.739 7.4834 15.0002 8.15007 15 8.4834"/>
    </symbol>
    <symbol id="home" viewBox="0 0 26 26">
        <path stroke="none" d="M13.6455 6.98452C13.2657 6.68965 12.7343 6.68965 12.3545 6.98451L8.40714 10.0489C8.15028 10.2483 8 10.5552 8 10.8804V16.0229C8 16.6042 8.47128 17.0755 9.05263 17.0755H16.9474C17.5287 17.0755 18 16.6042 18 16.0229V10.8804C18 10.5552 17.8497 10.2483 17.5928 10.0489L17.4079 9.90535V6.87814H15.3026V8.27102L13.6455 6.98452Z"/>
        <rect stroke="none" x="10.3027" y="12.1416" width="1.84211" height="2.5" rx="0.263158" fill="#F6F6F6"/>
        <rect stroke="none" x="13.8555" y="12.1416" width="1.84211" height="2.5" rx="0.263158" fill="#F6F6F6"/>
    </symbol>
    <symbol id="help" viewBox="0 0 26 26">
        <path stroke="none" d="M12 7.8125C12 7.36377 12.3638 7 12.8125 7H13.625C14.0737 7 14.4375 7.36377 14.4375 7.8125V15.125C14.4375 15.5737 14.0737 15.9375 13.625 15.9375H12.8125C12.3638 15.9375 12 15.5737 12 15.125V7.8125Z"/>
        <path stroke="none" d="M14.4375 18.7812C14.4375 19.4543 13.8918 20 13.2188 20C12.5457 20 12 19.4543 12 18.7812C12 18.1082 12.5457 17.5625 13.2188 17.5625C13.8918 17.5625 14.4375 18.1082 14.4375 18.7812Z"/>
    </symbol>
    <symbol id="back" viewBox="0 0 8 11">
        <path d="M7 10.5L1 5.5L7 0.5" fill="none" stroke-linecap="round"/>
    </symbol>

</svg>
