<svg xmlns="http://www.w3.org/2000/svg">
    <symbol id="nav" viewBox="0 0 8 5">
        <path d="M1.16797 1L4.16782 4.00023L7.16759 1" fill="none" stroke-linecap="round"/>
    </symbol>
    <symbol id="vk" viewBox="0 0 33 33">
        <path stroke="none" d="M16.9514 20.905C11.422 20.905 8.26813 17.2232 8.13672 11.0967H10.9065C10.9974 15.5934 13.0394 17.4981 14.6567 17.8908V11.0967H17.2647V14.9749C18.8619 14.8079 20.5399 13.0407 21.106 11.0967H23.714C23.5007 12.1049 23.0754 13.0595 22.4649 13.9008C21.8544 14.7421 21.0718 15.452 20.1659 15.9861C21.1771 16.4741 22.0702 17.1649 22.7863 18.0128C23.5025 18.8607 24.0254 19.8464 24.3205 20.905H21.4497C21.1847 19.9856 20.6463 19.1625 19.9019 18.539C19.1574 17.9155 18.24 17.5192 17.2647 17.3999V20.905H16.9514Z"/>
    </symbol>
    <symbol id="od" viewBox="0 0 34 33">
        <path fill="none" d="M13.4189 17.6016C15.5091 19.0877 18.7607 19.089 20.8528 17.6016" stroke-width="2" stroke-linecap="round" stroke-linejoin="round"/>
        <path fill="none" d="M13.5107 23.5494L17.0713 19.5537L20.8517 23.5494" stroke-width="2" stroke-linecap="round" stroke-linejoin="round"/>
        <path fill="none" d="M20.021 11.7483C20.021 13.3392 18.7313 14.6289 17.1404 14.6289C15.5495 14.6289 14.2598 13.3392 14.2598 11.7483C14.2598 10.1574 15.5495 8.86768 17.1404 8.86768C18.7313 8.86768 20.021 10.1574 20.021 11.7483Z" stroke-width="2"/>
    </symbol>
    <symbol id="wa" viewBox="0 0 34 33">
        <path stroke="none" d="M22.9724 10.4172C21.4153 8.94935 19.3452 8.1377 17.1422 8.1377C12.599 8.1377 8.89847 11.6261 8.89847 15.9089C8.89847 17.2775 9.2786 18.6159 9.99764 19.7945L8.8252 23.8226L13.1944 22.7432C14.3989 23.3606 15.7545 23.6887 17.1331 23.6887H17.1377C21.6809 23.6887 25.3814 20.2003 25.3814 15.9175C25.386 13.8409 24.5296 11.8851 22.9724 10.4172Z"/>
        <path stroke="none" d="M20.6202 18.0843C20.4272 17.978 19.4792 17.4787 19.3034 17.4093C19.1275 17.34 18.9988 17.303 18.8702 17.5157C18.7415 17.7237 18.3726 18.1907 18.2611 18.3294C18.1496 18.4681 18.038 18.4866 17.845 18.3802C17.652 18.2739 17.0301 18.0566 16.2923 17.3492C15.7176 16.799 15.3315 16.1148 15.22 15.9067C15.1085 15.6987 15.2071 15.5877 15.3058 15.4814C15.3916 15.3889 15.4988 15.2363 15.5932 15.1161C15.6875 14.9959 15.7219 14.9081 15.7862 14.7694C15.8505 14.6306 15.8162 14.5104 15.769 14.4041C15.7219 14.2978 15.3358 13.276 15.1728 12.8599C15.0141 12.453 14.8554 12.5085 14.7396 12.5039C14.6281 12.4993 14.4994 12.4946 14.3707 12.4946C14.2421 12.4946 14.0319 12.5455 13.856 12.7535C13.6802 12.9616 13.1826 13.4655 13.1826 14.4873C13.1826 15.5091 13.8732 16.4985 13.9718 16.6372C14.0662 16.7759 15.3315 18.8749 17.2703 19.7765C17.7292 19.9892 18.0895 20.1186 18.3683 20.2157C18.8316 20.3729 19.2519 20.3498 19.5822 20.299C19.951 20.2389 20.7231 19.795 20.8861 19.3095C21.0448 18.8241 21.0448 18.408 20.9976 18.3201C20.9419 18.2415 20.8132 18.1907 20.6202 18.0843Z" fill="#F4F4F4"/>
    </symbol>
    <symbol id="tg" viewBox="0 0 34 33">
        <path stroke="none" fill-rule="evenodd" clip-rule="evenodd" d="M21.3551 11.2104L9.90768 15.3712C9.90768 15.3712 9.36842 15.545 9.40945 15.86C9.45048 16.1751 9.89595 16.3217 9.89595 16.3217L12.7739 17.218L19.6904 13.1496C19.6904 13.1496 20.089 12.9268 20.0773 13.1496C20.0773 13.1496 20.1476 13.1876 19.9366 13.3723C19.7256 13.5569 14.503 17.9024 14.503 17.9024L14.1279 20.8736C14.2862 20.9388 14.4327 20.8356 14.4327 20.8356L16.2966 19.2658L19.198 21.3244C19.9835 21.6395 20.2648 20.9822 20.2648 20.9822L22.2987 11.4603C22.2987 10.8302 21.3551 11.2104 21.3551 11.2104Z"/>
    </symbol>
    <symbol id="phone" viewBox="0 0 34 33">
        <path stroke="none" d="M14.0347 11.5728C14.4028 12.8443 13.5307 13.8243 13.0487 14.1555C13.1583 14.7294 13.6534 16.1951 14.7577 17.4666C15.862 18.7381 17.5843 19.4974 18.3074 19.7181C18.3293 19.6078 18.5046 19.2811 19.0304 18.8573C19.5563 18.4334 20.3013 18.4158 20.6081 18.4599C21.0244 18.5041 22.1331 18.7513 23.2374 19.387C24.6178 20.1817 24.0919 21.4399 23.4346 22.2346C22.7773 23.0293 21.9227 23.4928 19.7535 23.2279C17.5843 22.9631 15.3493 21.771 13.0487 19.7181C10.748 17.6652 9.89348 15.215 9.43334 13.5594C9.06523 12.235 9.19231 10.8443 9.30187 10.3145C9.60863 9.91721 10.4062 9.00334 11.1424 8.52654C11.8786 8.04974 12.9391 8.9018 13.3774 9.38743C13.4431 9.5861 13.6666 10.3013 14.0347 11.5728Z"/>
    </symbol>

    <symbol id="tel" viewBox="0 0 43 43">
        <path fill="none" d="M29.5002 27.8962L29.1095 27.4876C29.3598 27.2482 29.4339 27.0362 29.4347 26.8773C29.4354 26.7196 29.3644 26.5122 29.119 26.279L29.5002 27.8962ZM29.5002 27.8962C30.1631 27.2623 30.1673 26.4953 29.5085 25.8692C28.7215 25.122 27.9303 24.3788 27.1392 23.6355L29.5002 27.8962ZM29.5002 27.8962L29.1101 27.487C28.9732 27.6175 28.825 27.7536 28.6723 27.8939C28.3622 28.1786 28.0336 28.4804 27.7431 28.787L27.7426 28.7876C27.2684 29.2895 26.6775 29.4699 25.9086 29.4292L25.9079 29.4291C24.7196 29.3678 23.6086 28.9955 22.4973 28.486C20.0285 27.3525 17.9207 25.7834 16.1534 23.7988L16.1532 23.7985C14.8393 22.3248 13.7701 20.7333 13.0709 18.955L13.0709 18.955L13.0701 18.953C12.7269 18.0899 12.5095 17.2657 12.5779 16.4179C12.6165 15.9549 12.7915 15.5796 13.1454 15.2631L13.1463 15.2623C13.4526 14.9872 13.7601 14.694 14.0603 14.4078C14.2548 14.2222 14.4463 14.0396 14.6325 13.8667L14.6333 13.866C14.8682 13.647 15.0999 13.5656 15.3015 13.5653C15.5034 13.5651 15.7364 13.646 15.9735 13.8641M29.5002 27.8962L15.9735 13.8641M26.7522 24.0476C27.5434 24.7909 28.3334 25.5331 29.119 26.279L26.7522 24.0476ZM26.7522 24.0476C26.5146 23.8263 26.2822 23.7451 26.0823 23.7451C25.8824 23.7451 25.6514 23.8263 25.4161 24.047L25.4157 24.0474C24.9221 24.5097 24.4325 24.9682 23.9517 25.4339L23.5583 25.0278M26.7522 24.0476L17.162 14.9866C17.1617 14.9862 17.1613 14.9859 17.1609 14.9855M23.5583 25.0278L23.9528 25.4328C23.8508 25.5321 23.6928 25.6574 23.4711 25.6993C23.2399 25.7429 23.0397 25.6781 22.8906 25.5994C22.7763 25.5407 22.661 25.4871 22.5341 25.4281C22.4988 25.4118 22.4626 25.395 22.4254 25.3775C22.2598 25.3001 22.078 25.2126 21.9006 25.1084L21.8981 25.1069C20.4039 24.2193 19.1611 23.0832 18.0711 21.8206L18.0709 21.8202C17.5241 21.1859 17.0185 20.4854 16.6608 19.6813M23.5583 25.0278C23.4257 25.157 23.3139 25.1844 23.1523 25.0983L25.0293 23.6347C24.5362 24.0965 24.0431 24.5582 23.5583 25.0278ZM16.6608 19.6813L17.1773 19.4515L16.6609 19.6817C16.6609 19.6815 16.6608 19.6814 16.6608 19.6813ZM16.6608 19.6813C16.607 19.5606 16.5446 19.374 16.5858 19.1534C16.6275 18.9303 16.7557 18.7746 16.8637 18.6726L16.8707 18.666L16.8708 18.666C17.2881 18.2851 17.6963 17.8958 18.1111 17.5003C18.1807 17.434 18.2504 17.3674 18.3205 17.3007L18.321 17.3002C18.5803 17.0538 18.6513 16.8449 18.6511 16.693C18.6509 16.5407 18.5789 16.3302 18.3168 16.0811L18.3159 16.0802C18.1245 15.8975 17.9329 15.7166 17.7401 15.5344L17.7395 15.5339C17.5475 15.3526 17.3543 15.1701 17.1609 14.9855M17.1609 14.9855C17.0256 14.8577 16.8923 14.731 16.7599 14.605C16.4976 14.3556 16.2385 14.1092 15.9735 13.8641M17.1609 14.9855L15.9735 13.8641" stroke-width="1.13068"/>
    </symbol>
    <symbol id="user" viewBox="0 0 44 43">
        <path stroke="none" fill-rule="evenodd" clip-rule="evenodd" d="M25.0326 17.6476C25.0326 19.0403 23.9071 20.1645 22.5247 20.1645C21.1423 20.1645 20.0168 19.0403 20.0168 17.6476C20.0168 16.2549 21.1423 15.1307 22.5247 15.1307C23.9071 15.1307 25.0326 16.2549 25.0326 17.6476ZM24.1571 20.9084C25.3469 20.3086 26.1633 19.0737 26.1633 17.6476C26.1633 15.6331 24.5342 14 22.5247 14C20.5152 14 18.8861 15.6331 18.8861 17.6476C18.8861 19.0736 19.7024 20.3085 20.8921 20.9083C17.5276 21.6555 15.0127 24.6638 15.0127 28.259C15.0127 28.5713 15.2658 28.8244 15.578 28.8244C15.8903 28.8244 16.1434 28.5713 16.1434 28.259C16.1434 24.7241 19.0016 21.8608 22.5244 21.8608C26.0472 21.8608 28.9054 24.7241 28.9054 28.259C28.9054 28.5713 29.1586 28.8244 29.4708 28.8244C29.783 28.8244 30.0361 28.5713 30.0361 28.259C30.0361 24.6639 27.5215 21.6557 24.1571 20.9084Z"/>
    </symbol>
    <symbol id="message" viewBox="0 0 44 43">
        <path fill="none" d="M20.6786 25.5357H16.2614C15.0124 25.5357 14 24.5233 14 23.2744V16.2614C14 15.0124 15.0124 14 16.2614 14H28.7386C29.9876 14 31 15.0124 31 16.2614V23.2743C31 24.5233 29.9876 25.5357 28.7386 25.5357H25.8653C25.2655 25.5357 24.6903 25.774 24.2662 26.1981L19.4643 31" stroke-width="1.13068" stroke-linecap="round"/>
    </symbol>
    <symbol id="burger" viewBox="0 0 44 43">
        <path fill="none" d="M16 15H31M16 21.3529H31M16 27H31" stroke-width="1.13068" stroke-linecap="round"/>
    </symbol>

</svg>
